<svg width="30" height="30" viewBox="0 0 30 30" fill="none" xmlns="http://www.w3.org/2000/svg">
<path d="M27.3633 7.90123H24.9841L23.7991 4.57216C22.8235 1.8313 20.3368 0 17.5365 0H12.4635C9.68508 0 7.18424 1.80969 6.20092 4.57216L5.01592 7.90123H2.63672C1.18283 7.90123 0 9.14734 0 10.679V27.2222C0 28.7538 1.18283 30 2.63672 30H27.3633C28.8172 30 30 28.7538 30 27.2222V10.679C30 9.14734 28.8172 7.90123 27.3633 7.90123ZM20.7422 11.8518H25.1308C25.7644 11.8518 26.1905 12.5389 25.9354 13.1504L22.4285 21.5545C22.2327 22.024 21.7134 22.2348 21.2702 22.0297C20.8259 21.8238 20.624 21.2775 20.8194 20.8093L23.7844 13.7037H20.7422C20.2568 13.7037 19.8633 13.2891 19.8633 12.7777C19.8633 12.2664 20.2568 11.8518 20.7422 11.8518ZM17.8751 4.7858C17.9275 4.25333 18.3927 3.86358 18.9216 3.96851C19.4016 4.07388 19.7023 4.54858 19.6119 5.0574C19.5127 5.55617 19.0669 5.88086 18.5782 5.78456C18.1111 5.68179 17.8311 5.23321 17.8751 4.7858ZM14.1251 4.7858C14.1775 4.25352 14.6426 3.86351 15.1716 3.96851C15.6484 4.07315 15.9526 4.5466 15.8619 5.0574C15.7618 5.56005 15.3133 5.88012 14.8282 5.78456C14.362 5.68203 14.081 5.23431 14.1251 4.7858ZM12.7734 11.8518H17.1621C17.7956 11.8518 18.2218 12.5389 17.9666 13.1504L14.4598 21.5545C14.2639 22.024 13.7446 22.2348 13.3015 22.0297C12.8571 21.8238 12.6553 21.2775 12.8506 20.8093L15.8156 13.7037H12.7734C12.288 13.7037 11.8945 13.2891 11.8945 12.7777C11.8945 12.2664 12.288 11.8518 12.7734 11.8518ZM10.3751 4.78518C10.4294 4.24493 10.9 3.865 11.4216 3.96851C11.9159 4.07697 12.2061 4.57623 12.1113 5.0574C12.0264 5.53024 11.5842 5.88426 11.0783 5.78456C10.6102 5.6816 10.3318 5.23383 10.3751 4.78518ZM4.80469 11.8518H9.1933C9.82687 11.8518 10.253 12.5389 9.99785 13.1504L6.49102 21.5545C6.2952 22.024 5.77588 22.2348 5.33273 22.0297C4.88836 21.8238 4.6865 21.2775 4.88186 20.8093L7.84687 13.7037H4.80469C4.3193 13.7037 3.92578 13.2891 3.92578 12.7777C3.92578 12.2664 4.3193 11.8518 4.80469 11.8518ZM25.3125 26.0494H4.6875C4.20211 26.0494 3.80859 25.6348 3.80859 25.1235C3.80859 24.6121 4.20211 24.1975 4.6875 24.1975H25.3125C25.7979 24.1975 26.1914 24.6121 26.1914 25.1235C26.1914 25.6348 25.7979 26.0494 25.3125 26.0494Z" fill="#1769FF"/>
</svg>
